<svg xmlns="http://www.w3.org/2000/svg" xmlns:xlink="http://www.w3.org/1999/xlink" width="500" zoomAndPan="magnify" viewBox="0 0 375 374.999991" height="500" preserveAspectRatio="xMidYMid meet" version="1.0"><defs><g/></defs><g fill="#ff4a00" fill-opacity="1"><g transform="translate(37.500002, 270.576605)"><g><path d="M 151.5625 0 L 60 0 C 45.21875 0 34.566406 -3.648438 28.046875 -10.953125 C 21.523438 -18.253906 18.265625 -28.082031 18.265625 -40.4375 L 18.265625 -135.640625 C 18.265625 -147.992188 21.523438 -157.820312 28.046875 -165.125 C 34.566406 -172.425781 45.21875 -176.078125 60 -176.078125 L 150.25 -176.078125 L 150.25 -133.03125 L 66.515625 -133.03125 L 66.515625 -109.5625 L 144.25 -109.5625 L 144.25 -66.515625 L 66.515625 -66.515625 L 66.515625 -43.046875 L 151.5625 -43.046875 Z M 151.5625 0 "/></g></g></g><g fill="#ff4a00" fill-opacity="1"><g transform="translate(202.099178, 270.576605)"><g><path d="M 109.296875 0 L 61.046875 0 L 61.046875 -116.609375 L 24.78125 -98.34375 L 2.609375 -144.515625 L 54 -170.859375 C 59.039062 -173.472656 64.125 -175.648438 69.25 -177.390625 C 74.382812 -179.128906 79.125 -180 83.46875 -180 C 91.300781 -180 97.5625 -177.5625 102.25 -172.6875 C 106.945312 -167.820312 109.296875 -160.78125 109.296875 -151.5625 Z M 109.296875 0 "/></g></g></g></svg>