<svg xmlns="http://www.w3.org/2000/svg" xmlns:xlink="http://www.w3.org/1999/xlink" width="500" zoomAndPan="magnify" viewBox="0 0 375 374.999991" height="500" preserveAspectRatio="xMidYMid meet" version="1.0"><defs><clipPath id="56ce0899f6"><path d="M 37.257812 248 L 99.113281 248 L 99.113281 309.925781 L 37.257812 309.925781 Z M 37.257812 248 " clip-rule="nonzero"/></clipPath><clipPath id="fd2e5092b3"><path d="M 46.5 248.070312 L 90.113281 248.070312 C 92.5 248.070312 94.789062 249.019531 96.476562 250.707031 C 98.164062 252.394531 99.113281 254.683594 99.113281 257.070312 L 99.113281 300.824219 C 99.113281 303.210938 98.164062 305.5 96.476562 307.1875 C 94.789062 308.875 92.5 309.824219 90.113281 309.824219 L 46.5 309.824219 C 44.113281 309.824219 41.824219 308.875 40.136719 307.1875 C 38.449219 305.5 37.5 303.210938 37.5 300.824219 L 37.5 257.070312 C 37.5 254.683594 38.449219 252.394531 40.136719 250.707031 C 41.824219 249.019531 44.113281 248.070312 46.5 248.070312 Z M 46.5 248.070312 " clip-rule="nonzero"/></clipPath><clipPath id="93f3cad3cb"><path d="M 99 187.390625 L 275.921875 187.390625 L 275.921875 249.382812 L 99 249.382812 Z M 99 187.390625 " clip-rule="nonzero"/></clipPath><clipPath id="178296f211"><path d="M 108.113281 187.628906 L 266.886719 187.628906 C 269.273438 187.628906 271.5625 188.578125 273.25 190.265625 C 274.9375 191.953125 275.886719 194.242188 275.886719 196.628906 L 275.886719 240.382812 C 275.886719 242.769531 274.9375 245.058594 273.25 246.746094 C 271.5625 248.433594 269.273438 249.382812 266.886719 249.382812 L 108.113281 249.382812 C 105.726562 249.382812 103.4375 248.433594 101.75 246.746094 C 100.0625 245.058594 99.113281 242.769531 99.113281 240.382812 L 99.113281 196.628906 C 99.113281 194.242188 100.0625 191.953125 101.75 190.265625 C 103.4375 188.578125 105.726562 187.628906 108.113281 187.628906 Z M 108.113281 187.628906 " clip-rule="nonzero"/></clipPath><clipPath id="f5c677d189"><path d="M 275.648438 248 L 337.5 248 L 337.5 309.925781 L 275.648438 309.925781 Z M 275.648438 248 " clip-rule="nonzero"/></clipPath><clipPath id="d65faa9b26"><path d="M 284.886719 248.070312 L 328.5 248.070312 C 330.886719 248.070312 333.175781 249.019531 334.863281 250.707031 C 336.550781 252.394531 337.5 254.683594 337.5 257.070312 L 337.5 300.824219 C 337.5 303.210938 336.550781 305.5 334.863281 307.1875 C 333.175781 308.875 330.886719 309.824219 328.5 309.824219 L 284.886719 309.824219 C 282.5 309.824219 280.210938 308.875 278.523438 307.1875 C 276.835938 305.5 275.886719 303.210938 275.886719 300.824219 L 275.886719 257.070312 C 275.886719 254.683594 276.835938 252.394531 278.523438 250.707031 C 280.210938 249.019531 282.5 248.070312 284.886719 248.070312 Z M 284.886719 248.070312 " clip-rule="nonzero"/></clipPath><clipPath id="ea1dcd1b80"><path d="M 99 65 L 160.726562 65 L 160.726562 127 L 99 127 Z M 99 65 " clip-rule="nonzero"/></clipPath><clipPath id="66cdee42c9"><path d="M 108.113281 65.175781 L 151.726562 65.175781 C 154.113281 65.175781 156.402344 66.125 158.089844 67.8125 C 159.777344 69.5 160.726562 71.789062 160.726562 74.175781 L 160.726562 117.929688 C 160.726562 120.316406 159.777344 122.605469 158.089844 124.292969 C 156.402344 125.980469 154.113281 126.929688 151.726562 126.929688 L 108.113281 126.929688 C 105.726562 126.929688 103.4375 125.980469 101.75 124.292969 C 100.0625 122.605469 99.113281 120.316406 99.113281 117.929688 L 99.113281 74.175781 C 99.113281 71.789062 100.0625 69.5 101.75 67.8125 C 103.4375 66.125 105.726562 65.175781 108.113281 65.175781 Z M 108.113281 65.175781 " clip-rule="nonzero"/></clipPath><clipPath id="e8ae0c9930"><path d="M 214.035156 65 L 275.886719 65 L 275.886719 127 L 214.035156 127 Z M 214.035156 65 " clip-rule="nonzero"/></clipPath><clipPath id="dc1b7b3c89"><path d="M 223.273438 65.175781 L 266.886719 65.175781 C 269.273438 65.175781 271.5625 66.125 273.25 67.8125 C 274.9375 69.5 275.886719 71.789062 275.886719 74.175781 L 275.886719 117.929688 C 275.886719 120.316406 274.9375 122.605469 273.25 124.292969 C 271.5625 125.980469 269.273438 126.929688 266.886719 126.929688 L 223.273438 126.929688 C 220.886719 126.929688 218.597656 125.980469 216.910156 124.292969 C 215.222656 122.605469 214.273438 120.316406 214.273438 117.929688 L 214.273438 74.175781 C 214.273438 71.789062 215.222656 69.5 216.910156 67.8125 C 218.597656 66.125 220.886719 65.175781 223.273438 65.175781 Z M 223.273438 65.175781 " clip-rule="nonzero"/></clipPath></defs><g clip-path="url(#56ce0899f6)"><g clip-path="url(#fd2e5092b3)"><path fill="#ff4a00" d="M 37.5 248.070312 L 99.113281 248.070312 L 99.113281 309.925781 L 37.5 309.925781 Z M 37.5 248.070312 " fill-opacity="1" fill-rule="nonzero"/></g></g><g clip-path="url(#93f3cad3cb)"><g clip-path="url(#178296f211)"><path fill="#ff4a00" d="M 99.113281 187.628906 L 275.921875 187.628906 L 275.921875 249.382812 L 99.113281 249.382812 Z M 99.113281 187.628906 " fill-opacity="1" fill-rule="nonzero"/></g></g><g clip-path="url(#f5c677d189)"><g clip-path="url(#d65faa9b26)"><path fill="#ff4a00" d="M 275.886719 248.070312 L 337.5 248.070312 L 337.5 309.925781 L 275.886719 309.925781 Z M 275.886719 248.070312 " fill-opacity="1" fill-rule="nonzero"/></g></g><g clip-path="url(#ea1dcd1b80)"><g clip-path="url(#66cdee42c9)"><path fill="#ff4a00" d="M 99.113281 65.175781 L 160.726562 65.175781 L 160.726562 127.03125 L 99.113281 127.03125 Z M 99.113281 65.175781 " fill-opacity="1" fill-rule="nonzero"/></g></g><g clip-path="url(#e8ae0c9930)"><g clip-path="url(#dc1b7b3c89)"><path fill="#ff4a00" d="M 214.273438 65.175781 L 275.886719 65.175781 L 275.886719 127.03125 L 214.273438 127.03125 Z M 214.273438 65.175781 " fill-opacity="1" fill-rule="nonzero"/></g></g></svg>