<svg xmlns="http://www.w3.org/2000/svg" xmlns:xlink="http://www.w3.org/1999/xlink" width="500" zoomAndPan="magnify" viewBox="0 0 375 374.999991" height="500" preserveAspectRatio="xMidYMid meet" version="1.0"><defs><clipPath id="65b86b5f0d"><path d="M 37.257812 187.390625 L 99.113281 187.390625 L 99.113281 249.484375 L 37.257812 249.484375 Z M 37.257812 187.390625 " clip-rule="nonzero"/></clipPath><clipPath id="a0dd0e17e2"><path d="M 46.5 187.628906 L 90.113281 187.628906 C 92.5 187.628906 94.789062 188.578125 96.476562 190.265625 C 98.164062 191.953125 99.113281 194.242188 99.113281 196.628906 L 99.113281 240.382812 C 99.113281 242.769531 98.164062 245.058594 96.476562 246.746094 C 94.789062 248.433594 92.5 249.382812 90.113281 249.382812 L 46.5 249.382812 C 44.113281 249.382812 41.824219 248.433594 40.136719 246.746094 C 38.449219 245.058594 37.5 242.769531 37.5 240.382812 L 37.5 196.628906 C 37.5 194.242188 38.449219 191.953125 40.136719 190.265625 C 41.824219 188.578125 44.113281 187.628906 46.5 187.628906 Z M 46.5 187.628906 " clip-rule="nonzero"/></clipPath><clipPath id="cb267f4b66"><path d="M 99 248 L 275.921875 248 L 275.921875 309.824219 L 99 309.824219 Z M 99 248 " clip-rule="nonzero"/></clipPath><clipPath id="1e23c9b569"><path d="M 108.113281 248.070312 L 266.886719 248.070312 C 269.273438 248.070312 271.5625 249.019531 273.25 250.707031 C 274.9375 252.394531 275.886719 254.683594 275.886719 257.070312 L 275.886719 300.824219 C 275.886719 303.210938 274.9375 305.5 273.25 307.1875 C 271.5625 308.875 269.273438 309.824219 266.886719 309.824219 L 108.113281 309.824219 C 105.726562 309.824219 103.4375 308.875 101.75 307.1875 C 100.0625 305.5 99.113281 303.210938 99.113281 300.824219 L 99.113281 257.070312 C 99.113281 254.683594 100.0625 252.394531 101.75 250.707031 C 103.4375 249.019531 105.726562 248.070312 108.113281 248.070312 Z M 108.113281 248.070312 " clip-rule="nonzero"/></clipPath><clipPath id="555e10ffc4"><path d="M 275.648438 187.390625 L 337.5 187.390625 L 337.5 249.484375 L 275.648438 249.484375 Z M 275.648438 187.390625 " clip-rule="nonzero"/></clipPath><clipPath id="2c96d4285b"><path d="M 284.886719 187.628906 L 328.5 187.628906 C 330.886719 187.628906 333.175781 188.578125 334.863281 190.265625 C 336.550781 191.953125 337.5 194.242188 337.5 196.628906 L 337.5 240.382812 C 337.5 242.769531 336.550781 245.058594 334.863281 246.746094 C 333.175781 248.433594 330.886719 249.382812 328.5 249.382812 L 284.886719 249.382812 C 282.5 249.382812 280.210938 248.433594 278.523438 246.746094 C 276.835938 245.058594 275.886719 242.769531 275.886719 240.382812 L 275.886719 196.628906 C 275.886719 194.242188 276.835938 191.953125 278.523438 190.265625 C 280.210938 188.578125 282.5 187.628906 284.886719 187.628906 Z M 284.886719 187.628906 " clip-rule="nonzero"/></clipPath><clipPath id="92e4377664"><path d="M 99 65 L 160.726562 65 L 160.726562 127 L 99 127 Z M 99 65 " clip-rule="nonzero"/></clipPath><clipPath id="414074905e"><path d="M 108.113281 65.175781 L 151.726562 65.175781 C 154.113281 65.175781 156.402344 66.125 158.089844 67.8125 C 159.777344 69.5 160.726562 71.789062 160.726562 74.175781 L 160.726562 117.929688 C 160.726562 120.316406 159.777344 122.605469 158.089844 124.292969 C 156.402344 125.980469 154.113281 126.929688 151.726562 126.929688 L 108.113281 126.929688 C 105.726562 126.929688 103.4375 125.980469 101.75 124.292969 C 100.0625 122.605469 99.113281 120.316406 99.113281 117.929688 L 99.113281 74.175781 C 99.113281 71.789062 100.0625 69.5 101.75 67.8125 C 103.4375 66.125 105.726562 65.175781 108.113281 65.175781 Z M 108.113281 65.175781 " clip-rule="nonzero"/></clipPath><clipPath id="4b84b18d85"><path d="M 214.035156 65 L 275.886719 65 L 275.886719 127 L 214.035156 127 Z M 214.035156 65 " clip-rule="nonzero"/></clipPath><clipPath id="c825352398"><path d="M 223.273438 65.175781 L 266.886719 65.175781 C 269.273438 65.175781 271.5625 66.125 273.25 67.8125 C 274.9375 69.5 275.886719 71.789062 275.886719 74.175781 L 275.886719 117.929688 C 275.886719 120.316406 274.9375 122.605469 273.25 124.292969 C 271.5625 125.980469 269.273438 126.929688 266.886719 126.929688 L 223.273438 126.929688 C 220.886719 126.929688 218.597656 125.980469 216.910156 124.292969 C 215.222656 122.605469 214.273438 120.316406 214.273438 117.929688 L 214.273438 74.175781 C 214.273438 71.789062 215.222656 69.5 216.910156 67.8125 C 218.597656 66.125 220.886719 65.175781 223.273438 65.175781 Z M 223.273438 65.175781 " clip-rule="nonzero"/></clipPath></defs><g clip-path="url(#65b86b5f0d)"><g clip-path="url(#a0dd0e17e2)"><path fill="#ff4a00" d="M 37.5 187.628906 L 99.113281 187.628906 L 99.113281 249.484375 L 37.5 249.484375 Z M 37.5 187.628906 " fill-opacity="1" fill-rule="nonzero"/></g></g><g clip-path="url(#cb267f4b66)"><g clip-path="url(#1e23c9b569)"><path fill="#ff4a00" d="M 99.113281 248.070312 L 275.921875 248.070312 L 275.921875 309.824219 L 99.113281 309.824219 Z M 99.113281 248.070312 " fill-opacity="1" fill-rule="nonzero"/></g></g><g clip-path="url(#555e10ffc4)"><g clip-path="url(#2c96d4285b)"><path fill="#ff4a00" d="M 275.886719 187.628906 L 337.5 187.628906 L 337.5 249.484375 L 275.886719 249.484375 Z M 275.886719 187.628906 " fill-opacity="1" fill-rule="nonzero"/></g></g><g clip-path="url(#92e4377664)"><g clip-path="url(#414074905e)"><path fill="#ff4a00" d="M 99.113281 65.175781 L 160.726562 65.175781 L 160.726562 127.03125 L 99.113281 127.03125 Z M 99.113281 65.175781 " fill-opacity="1" fill-rule="nonzero"/></g></g><g clip-path="url(#4b84b18d85)"><g clip-path="url(#c825352398)"><path fill="#ff4a00" d="M 214.273438 65.175781 L 275.886719 65.175781 L 275.886719 127.03125 L 214.273438 127.03125 Z M 214.273438 65.175781 " fill-opacity="1" fill-rule="nonzero"/></g></g></svg>